<svg xmlns="http://www.w3.org/2000/svg" viewBox="0 0 600 400" width="600" height="400">
  <rect width="600" height="400" fill="#080B14"/>
  
      <defs>
        <linearGradient id="skyGrad" x1="0%" y1="0%" x2="0%" y2="100%">
          <stop offset="0%" stop-color="#080B14"/>
          <stop offset="40%" stop-color="#1E1B4B"/>
          <stop offset="70%" stop-color="#172554"/>
          <stop offset="90%" stop-color="#F43F5E"/>
          <stop offset="100%" stop-color="#FB7185"/>
        </linearGradient>
      </defs>
      <rect width="600" height="400" fill="url(#skyGrad)" />
      <!-- Starry sky on top half -->
      <circle cx="80" cy="50" r="1.5" fill="#FFF" />
      <circle cx="220" cy="30" r="2" fill="#FDE68A" />
      <circle cx="390" cy="60" r="1.5" fill="#FFF" />
      <circle cx="510" cy="40" r="2" fill="#FFF" />
      <circle cx="480" cy="80" r="1.5" fill="#FDE68A" />
      <!-- Crescent Moon -->
      <path d="M120,40 A18,18 0 0,0 134,68 A15,15 0 1,1 120,40 Z" fill="#FDE68A" />
      <!-- Skyline silhouette -->
      <rect x="40" y="240" width="45" height="160" fill="#060810" />
      <rect x="100" y="210" width="60" height="190" fill="#05070E" />
      <rect x="180" y="260" width="50" height="140" fill="#070A12" />
      <rect x="250" y="190" width="70" height="210" fill="#04060C" />
      <rect x="340" y="230" width="55" height="170" fill="#060810" />
      <rect x="415" y="200" width="65" height="200" fill="#05070E" />
      <rect x="500" y="250" width="70" height="150" fill="#070A12" />
      <!-- Windows glow -->
      <circle cx="120" cy="240" r="2" fill="#F43F5E" opacity="0.8"/>
      <circle cx="275" cy="220" r="2" fill="#F43F5E" opacity="0.8"/>
      <circle cx="435" cy="230" r="2" fill="#F43F5E" opacity="0.8"/>
      <!-- Rooftop railing foreground -->
      <line x1="0" y1="360" x2="600" y2="360" stroke="rgba(255,255,255,0.4)" stroke-width="2"/>
      <line x1="0" y1="380" x2="600" y2="380" stroke="rgba(255,255,255,0.3)" stroke-width="1.5"/>
      <line x1="100" y1="360" x2="100" y2="400" stroke="rgba(255,255,255,0.3)" stroke-width="2"/>
      <line x1="250" y1="360" x2="250" y2="400" stroke="rgba(255,255,255,0.3)" stroke-width="2"/>
      <line x1="400" y1="360" x2="400" y2="400" stroke="rgba(255,255,255,0.3)" stroke-width="2"/>
      <line x1="550" y1="360" x2="550" y2="400" stroke="rgba(255,255,255,0.3)" stroke-width="2"/>
    
</svg>