<svg xmlns="http://www.w3.org/2000/svg" viewBox="0 0 600 400" width="600" height="400">
  <rect width="600" height="400" fill="#080B14"/>
  
      <defs>
        <radialGradient id="lampGlow" cx="50%" cy="30%" r="50%">
          <stop offset="0%" stop-color="#06B6D4" stop-opacity="0.8"/>
          <stop offset="50%" stop-color="#0F172A" stop-opacity="0.4"/>
          <stop offset="100%" stop-color="#04060C" stop-opacity="0"/>
        </radialGradient>
      </defs>
      <rect width="600" height="400" fill="url(#lampGlow)" />
      <!-- Lamp fixture -->
      <path d="M260,70 L340,70 L360,110 L240,110 Z" fill="#0F172A" stroke="#06B6D4" stroke-width="1.5"/>
      <line x1="300" y1="0" x2="300" y2="70" stroke="#06B6D4" stroke-width="2"/>
      <circle cx="300" cy="115" r="10" fill="#FFF" opacity="0.95"/>
      <!-- Table surface -->
      <ellipse cx="300" cy="360" rx="280" ry="90" fill="#0A0E1A" stroke="rgba(255,255,255,0.1)" stroke-width="1.5"/>
      <!-- Coffee cups with steam -->
      <rect x="220" y="300" width="36" height="42" rx="4" fill="#1E293B" stroke="#06B6D4" stroke-width="1.5"/>
      <path d="M256,310 C266,310 266,330 256,330" fill="none" stroke="#06B6D4" stroke-width="2"/>
      <path d="M232,295 Q235,280 230,270" fill="none" stroke="#06B6D4" stroke-width="1.5" opacity="0.6"/>
      <path d="M242,295 Q245,280 240,270" fill="none" stroke="#06B6D4" stroke-width="1.5" opacity="0.6"/>

      <rect x="330" y="300" width="36" height="42" rx="4" fill="#1E293B" stroke="#38BDF8" stroke-width="1.5"/>
      <path d="M366,310 C376,310 376,330 366,330" fill="none" stroke="#38BDF8" stroke-width="2"/>
      <path d="M342,295 Q345,280 340,270" fill="none" stroke="#38BDF8" stroke-width="1.5" opacity="0.6"/>
    
</svg>